<svg width="48" height="48" viewBox="0 0 48 48" fill="none" xmlns="http://www.w3.org/2000/svg">
<g clip-path="url(#clip0_59_706)">
<path d="M46.5998 1.39988C45.6998 0.49988 44.0998 -0.0401192 42.3998 -0.000119191C40.7398 0.0198808 39.2998 0.53988 38.4598 1.41988L29.7598 10.6799C29.4798 10.9799 29.0598 11.1199 28.6598 11.0199L4.33982 5.87988C3.41982 5.67988 2.47982 5.93988 1.81982 6.61988C1.13982 7.29988 0.819821 8.25988 0.919821 9.21988C1.03982 10.1999 1.59982 11.0399 2.47982 11.5599L19.1398 20.3799C19.4398 20.5599 19.6398 20.8599 19.6798 21.2199C19.7398 21.5599 19.6198 21.8999 19.3998 22.1599L9.45983 32.8599L4.35982 30.6199C3.17982 30.0999 1.79982 30.3599 0.879821 31.2799C0.259821 31.8999 -0.0601791 32.7599 -0.000179089 33.6199C0.0798209 34.4999 0.519821 35.2999 1.21982 35.7999L7.49982 40.4199C7.67982 40.5599 7.83982 40.7199 7.97982 40.9199L12.2598 46.7799C12.7598 47.4799 13.5598 47.9199 14.4398 47.9999H14.6598C15.4598 47.9999 16.1998 47.6799 16.7798 47.1199C17.6998 46.1999 17.9598 44.8399 17.4398 43.6399L15.1998 38.5199L20.0198 34.0399C19.9998 33.7399 19.9998 33.4199 19.9998 33.0999V25.0799C19.9998 22.7199 21.4998 20.6199 23.7398 19.8599L34.2198 16.2999C35.3598 15.8999 36.6398 15.8999 37.7798 16.2999L38.9598 16.6999L46.5798 9.53988C47.4598 8.69988 47.9798 7.27988 47.9998 5.59988C48.0198 3.87988 47.4998 2.29988 46.5998 1.39988Z" fill="#8E8E8E"/>
<path d="M46.982 23.652L36.482 20.08C36.17 19.972 35.83 19.972 35.518 20.08L25.018 23.652C24.408 23.858 24 24.428 24 25.072V33.108C24 42.916 34.948 47.684 35.414 47.882C35.79 48.04 36.21 48.04 36.586 47.882C37.052 47.682 48 42.916 48 33.108V25.072C48 24.428 47.592 23.858 46.982 23.652ZM42.572 31.236L37.072 38.236C36.372 39.13 35.06 39.26 34.198 38.52L30.698 35.52C29.858 34.802 29.76 33.538 30.482 32.7C31.2 31.862 32.464 31.766 33.3 32.484L35.216 34.126L39.426 28.768C40.108 27.9 41.364 27.746 42.234 28.432C43.104 29.11 43.256 30.368 42.572 31.236Z" fill="#8E8E8E"/>
</g>
<defs>
<clipPath id="clip0_59_706">
<rect width="48" height="48" fill="white"/>
</clipPath>
</defs>
</svg>
