<svg width="48" height="48" viewBox="0 0 48 48" fill="none" xmlns="http://www.w3.org/2000/svg">
<g clip-path="url(#clip0_55_980)">
<path d="M46.982 3.65203L36.482 0.0800235C36.17 -0.0279766 35.83 -0.0279766 35.518 0.0800235L25.018 3.65203C24.408 3.85803 24 4.43003 24 5.07203V13.108C24 22.916 34.948 27.684 35.414 27.882C35.79 28.04 36.21 28.04 36.586 27.882C37.052 27.684 48 22.916 48 13.108V5.07203C48 4.43003 47.592 3.85803 46.982 3.65203V3.65203ZM42.572 11.236L37.072 18.236C36.372 19.13 35.06 19.26 34.2 18.52L30.7 15.52C29.86 14.802 29.762 13.538 30.484 12.7C31.202 11.862 32.466 11.766 33.302 12.484L35.218 14.126L39.428 8.76803C40.11 7.90003 41.366 7.74603 42.236 8.43203C43.104 9.11003 43.256 10.368 42.572 11.236V11.236Z" fill="#8E8E8E"/>
<path d="M22 21.02V38C22 39.1 21.1 40 20 40H6C4.9 40 4 39.1 4 38V20C4 18.9 4.9 18 6 18H20C20.28 18 20.56 18.06 20.8 18.16C20.38 16.86 20.1 15.48 20.02 14H6C2.7 14 0 16.7 0 20V38C0 41.3 2.7 44 6 44H20C23.3 44 26 41.3 26 38V26.3C24.48 24.8 23.06 23.04 22 21.02Z" fill="#8E8E8E"/>
<path d="M17 17C15.894 17 15 16.104 15 15V8C15 6.896 15.894 6 17 6C18.106 6 19 6.896 19 8V15C19 16.104 18.106 17 17 17Z" fill="#8E8E8E"/>
<path d="M9.5 17C8.394 17 7.5 16.104 7.5 15V8C7.5 6.896 8.394 6 9.5 6C10.606 6 11.5 6.896 11.5 8V15C11.5 16.104 10.606 17 9.5 17Z" fill="#8E8E8E"/>
<path d="M20 6V10H6C4.9 10 4 9.10001 4 8C4 6.9 4.9 6 6 6H20Z" fill="#8E8E8E"/>
<path d="M6 48C4.894 48 4 47.104 4 46V43C4 41.896 4.894 41 6 41C7.106 41 8 41.896 8 43V46C8 47.104 7.106 48 6 48Z" fill="#8E8E8E"/>
<path d="M20 48C18.894 48 18 47.104 18 46V43C18 41.896 18.894 41 20 41C21.106 41 22 41.896 22 43V46C22 47.104 21.106 48 20 48Z" fill="#8E8E8E"/>
<path d="M14.5 36H11.5C9.57 36 8 34.43 8 32.5V29.5C8 27.57 9.57 26 11.5 26H14.5C16.43 26 18 27.57 18 29.5V32.5C18 34.43 16.43 36 14.5 36Z" fill="#8E8E8E"/>
</g>
<defs>
<clipPath id="clip0_55_980">
<rect width="48" height="48" fill="white"/>
</clipPath>
</defs>
</svg>
