<svg width="24" height="20" viewBox="0 0 24 20" fill="none" xmlns="http://www.w3.org/2000/svg">
<path d="M23.9897 1.19131C23.9897 0.673751 23.5702 0.254211 23.0526 0.254211H0.94736C0.430035 0.254211 0.0105424 0.673423 0.0102612 1.19075L0 18.8088C0 19.3263 0.419539 19.7459 0.937099 19.7459L23.0629 19.7459C23.5806 19.7459 24.0003 19.3261 24 18.8083L23.9897 1.19131ZM1.8742 4.09032L6.09986 9.94368L1.8742 15.5996V4.09032ZM16.1584 9.01609H7.7418L2.76941 2.12841H21.2044L16.1584 9.01609ZM7.73215 10.8903H16.1554L21.216 17.8717H2.51616L7.73215 10.8903ZM17.793 9.95614L22.1155 4.05607V15.9193L17.793 9.95614Z" fill="white"/>
</svg>
