<svg width="153" height="80" viewBox="0 0 153 80" fill="none" xmlns="http://www.w3.org/2000/svg">
<path d="M20.4999 17.6691C19.7695 18.5793 18.768 19.2367 17.6387 19.5476C16.5094 19.8584 15.31 19.8066 14.2121 19.3996C13.1142 18.9926 12.174 18.2513 11.5259 17.2816C10.8778 16.312 10.5551 15.1636 10.6038 14.0008C10.6214 12.6969 11.0897 11.4386 11.9303 10.4368C12.7709 9.43497 13.9327 8.75058 15.2209 8.4983C15.5183 8.48152 15.8163 8.48152 16.1136 8.4983C16.8695 8.47151 17.6227 8.60178 18.3251 8.88077C19.0274 9.15977 19.6633 9.58133 20.1921 10.1185C20.7153 10.7299 19.8227 11.5552 19.284 10.9286C18.8097 10.3896 18.1972 9.98834 17.5115 9.76764C16.8258 9.54693 16.0927 9.51499 15.3902 9.67522C14.3279 9.91357 13.3872 10.5232 12.7398 11.393C12.0923 12.2628 11.7813 13.3347 11.8634 14.4133C11.9455 15.4918 12.4153 16.5052 13.187 17.2684C13.9588 18.0316 14.9811 18.4939 16.0674 18.5709C16.7116 18.5879 17.3511 18.4591 17.9378 18.1943C18.5244 17.9295 19.0426 17.5356 19.4533 17.0424V14.7345H16.3752C16.2222 14.7345 16.0754 14.6741 15.9671 14.5666C15.8589 14.4591 15.7981 14.3133 15.7981 14.1613C15.7981 14.0093 15.8589 13.8635 15.9671 13.756C16.0754 13.6485 16.2222 13.5881 16.3752 13.5881H20.0074C20.5153 13.5881 20.6692 13.8479 20.6692 14.2301V17.1036C20.6895 17.3068 20.6287 17.5099 20.4999 17.6691Z" fill="white"/>
<path d="M38.0759 19.5796C37.6142 19.5796 37.4141 19.3656 37.4141 18.9529V9.06374C37.4141 8.89348 37.4822 8.7302 37.6034 8.60981C37.7247 8.48942 37.8891 8.42178 38.0605 8.42178C38.2319 8.42178 38.3964 8.48942 38.5176 8.60981C38.6388 8.7302 38.7069 8.89348 38.7069 9.06374V18.4485H45.1863C45.3373 18.4485 45.4822 18.5081 45.5889 18.6142C45.6957 18.7202 45.7557 18.8641 45.7557 19.0141C45.7557 19.164 45.6957 19.3079 45.5889 19.414C45.4822 19.52 45.3373 19.5796 45.1863 19.5796H38.0759Z" fill="white"/>
<path d="M57.8834 13.9244C57.854 12.6147 58.3068 11.3392 59.1569 10.3374C60.0069 9.33563 61.1958 8.67628 62.5005 8.48307C63.1081 8.39896 63.7245 8.39896 64.332 8.48307C65.6509 8.66781 66.8578 9.32079 67.7293 10.3212C68.6008 11.3216 69.0779 12.6016 69.0723 13.9244C69.114 14.6758 69.0014 15.4277 68.7414 16.1345C68.4813 16.8413 68.0792 17.4881 67.5595 18.0357C67.0398 18.5833 66.4133 19.0202 65.7183 19.3198C65.0232 19.6194 64.274 19.7754 63.5163 19.7784C62.7483 19.7997 61.9843 19.6608 61.2737 19.3706C60.563 19.0804 59.9216 18.6455 59.3908 18.0938C58.86 17.5421 58.4515 16.886 58.1919 16.1679C57.9322 15.4497 57.8272 14.6854 57.8834 13.9244ZM59.1762 13.9244C59.1258 14.5148 59.1994 15.1091 59.3924 15.6697C59.5853 16.2304 59.8933 16.7451 60.297 17.1814C60.7006 17.6177 61.1911 17.966 61.7373 18.2042C62.2835 18.4425 62.8736 18.5655 63.4702 18.5655C64.0667 18.5655 64.6568 18.4425 65.203 18.2042C65.7493 17.966 66.2397 17.6177 66.6433 17.1814C67.047 16.7451 67.355 16.2304 67.5479 15.6697C67.7409 15.1091 67.8145 14.5148 67.7641 13.9244C67.785 12.8979 67.4323 11.8983 66.7707 11.1093C66.1091 10.3203 65.1831 9.79481 64.1627 9.62942C63.6517 9.56548 63.1347 9.56548 62.6237 9.62942C61.6085 9.79794 60.693 10.3359 60.0556 11.1385C59.4183 11.941 59.1047 12.9506 59.1762 13.9703V13.9244Z" fill="white"/>
<path d="M90.5266 19.5797H86.0172C85.9343 19.5817 85.8519 19.5675 85.7745 19.5379C85.6972 19.5083 85.6265 19.4638 85.5665 19.407C85.5064 19.3502 85.4583 19.2823 85.4247 19.207C85.3911 19.1317 85.3728 19.0506 85.3708 18.9683V9.24726C85.3728 9.16496 85.3911 9.08385 85.4247 9.00858C85.4583 8.9333 85.5064 8.86534 85.5665 8.80856C85.6265 8.75178 85.6972 8.70731 85.7745 8.67768C85.8519 8.64805 85.9343 8.63384 86.0172 8.63588H90.1265C91.6655 8.63588 94.2357 9.17084 94.2357 11.6164C94.254 12.0535 94.1349 12.4855 93.895 12.8525C93.6551 13.2194 93.3062 13.5032 92.8967 13.6645C93.5087 13.7981 94.0555 14.137 94.4452 14.6242C94.8349 15.1115 95.0435 15.7172 95.036 16.3394C95.036 18.8919 92.712 19.5797 90.5266 19.5797ZM86.6482 9.75166V13.2671H90.188C91.7271 13.2671 92.9737 12.8697 92.9737 11.6164C92.9737 10.363 91.2038 9.75166 90.1265 9.75166H86.6482ZM86.6482 18.4639H90.5266C92.0656 18.4639 93.7278 18.0665 93.7278 16.3394C93.7278 14.979 92.5581 14.3829 91.0499 14.3829H86.6482V18.4639Z" fill="white"/>
<path d="M111.073 16.6909L109.672 19.4116C109.364 20.0536 108.133 19.6103 108.518 18.9072L113.766 8.66647C113.82 8.56396 113.902 8.47905 114.003 8.42207C114.104 8.3651 114.22 8.33849 114.336 8.34549C114.449 8.33957 114.562 8.36679 114.661 8.42381C114.759 8.48084 114.839 8.56518 114.89 8.66647L120.045 18.8614C120.507 19.6103 119.214 20.0383 118.891 19.3657L117.537 16.6909H111.073ZM114.336 10.1797L111.596 15.6057H117.06L114.336 10.1797Z" fill="white"/>
<path d="M135.759 19.5796C135.297 19.5796 135.097 19.3656 135.097 18.9529V9.06374C135.097 8.89348 135.165 8.7302 135.287 8.60981C135.408 8.48942 135.572 8.42178 135.744 8.42178C135.915 8.42178 136.079 8.48942 136.201 8.60981C136.322 8.7302 136.39 8.89348 136.39 9.06374V18.4485H142.869C143.02 18.4485 143.165 18.5081 143.272 18.6142C143.379 18.7202 143.439 18.8641 143.439 19.0141C143.439 19.164 143.379 19.3079 143.272 19.414C143.165 19.52 143.02 19.5796 142.869 19.5796H135.759Z" fill="white"/>
<path d="M89.9109 25.4184H112.566V22.7436H89.9109C89.2932 22.7007 88.674 22.8013 88.1023 23.0375C87.5307 23.2736 87.0222 23.6387 86.6173 24.1039C86.2687 24.5787 86.0207 25.1188 85.8884 25.6915C85.7561 26.2643 85.7423 26.8578 85.8478 27.436V65.7241H88.5411V44.0198H112.566V41.3603H88.5411V27.0386C88.4428 26.6058 88.5143 26.1521 88.7412 25.7699C89.0713 25.5081 89.49 25.3822 89.9109 25.4184Z" fill="white"/>
<path d="M120.23 63.0035C120.013 63.0262 119.794 63.0055 119.585 62.9425C119.376 62.8795 119.182 62.7755 119.014 62.6367C118.795 62.252 118.723 61.801 118.814 61.368V44.0199H142.87V41.3604H116.152V60.9706C116.049 61.5489 116.064 62.1418 116.196 62.7142C116.328 63.2865 116.575 63.8267 116.921 64.3027C117.327 64.7719 117.837 65.1405 118.412 65.3793C118.986 65.6182 119.609 65.7205 120.23 65.6783H142.87V63.0035H120.23Z" fill="white"/>
<path d="M142.854 22.7436H116.136V25.4184H142.854V22.7436Z" fill="white"/>
<path d="M67.3023 26.3813C66.9787 25.603 66.4271 24.9392 65.7191 24.4759C65.0111 24.0126 64.1793 23.7712 63.3316 23.7829V26.4425C63.6578 26.4197 63.9829 26.5008 64.2597 26.674C64.5364 26.8471 64.7504 27.1033 64.8706 27.4054C65.6401 29.2548 76.8444 57.2869 80.2611 65.6171H83.1083C80.2611 58.7084 68.118 28.353 67.3023 26.3813Z" fill="white"/>
<path d="M59.3454 26.3815C58.4836 28.3532 46.402 58.7086 43.6164 65.7242H46.5098C49.8495 57.3329 61.0538 29.3008 61.9002 27.5125C62.0205 27.2104 62.2345 26.9542 62.5112 26.7811C62.7879 26.608 63.113 26.5269 63.4393 26.5496V23.7831C62.5708 23.7462 61.712 23.9759 60.9795 24.4408C60.2471 24.9057 59.6765 25.5833 59.3454 26.3815Z" fill="white"/>
<path d="M32.3199 22.927C30.8523 22.3169 29.2722 22.0193 27.6815 22.0535C26.0909 22.0878 24.5252 22.453 23.0856 23.1257C21.7307 23.8033 20.5187 24.732 19.515 25.8617H37.6142C35.9899 24.6522 34.2092 23.6651 32.3199 22.927Z" fill="white"/>
<path d="M17.0832 29.8969C16.8327 30.7369 16.6879 31.6046 16.6523 32.48H43.6471C42.838 31.0918 41.8725 29.7996 40.7691 28.6282H17.5757C17.389 29.0421 17.2246 29.4656 17.0832 29.8969Z" fill="white"/>
<path d="M19.4842 39.1899H46.2636C45.9827 37.8673 45.5809 36.5729 45.0631 35.3228H17.0217C17.5227 36.7873 18.3666 38.1127 19.4842 39.1899Z" fill="white"/>
<path d="M24.6245 42.7972C26.379 43.6162 28.0275 44.6426 29.5341 45.8542H46.6637C46.7714 44.5674 46.7714 43.2739 46.6637 41.9872H23.3164C23.7473 42.2623 24.1936 42.5068 24.6245 42.7972Z" fill="white"/>
<path d="M33.8589 52.5793H44.94L45.2324 51.9832C45.6247 50.9169 45.9385 49.8238 46.1712 48.7123H32.1351C32.9456 49.8843 33.5301 51.1955 33.8589 52.5793Z" fill="white"/>
<path d="M33.6127 58.739C33.6127 58.9224 33.4896 59.0905 33.428 59.2739H40.5999C41.6997 58.096 42.6697 56.8047 43.4933 55.4222H34.1667C34.1264 56.5468 33.9402 57.6616 33.6127 58.739Z" fill="white"/>
<path d="M28.4261 65.9229C31.6063 65.2965 34.6138 63.9985 37.2448 62.117H32.0275C31.0712 63.5935 29.8506 64.8834 28.4261 65.9229Z" fill="white"/>
<path d="M14.4823 65.0516C15.9498 65.6618 17.53 65.9593 19.1206 65.9251C20.7112 65.8909 22.2769 65.5256 23.7165 64.8529C25.0391 64.1924 26.2243 63.2901 27.2102 62.1934H9.23411C10.8436 63.3714 12.6032 64.3325 14.4669 65.0516H14.4823Z" fill="white"/>
<path d="M29.6879 58.0819C29.9383 57.2626 30.0831 56.4152 30.1189 55.5599H3.15479C3.97973 56.9502 4.95511 58.2469 6.06358 59.4269H29.1493C29.3642 58.9934 29.5444 58.5436 29.6879 58.0819Z" fill="white"/>
<path d="M27.3332 48.7735H0.523034C0.804266 50.0978 1.21137 51.3926 1.73888 52.6405H29.7649C29.2794 51.176 28.4452 49.8495 27.3332 48.7735Z" fill="white"/>
<path d="M22.1005 45.1662C20.3773 44.3425 18.76 43.3162 17.2833 42.1092H0.107582C-0.00786579 43.3957 -0.00786579 44.6898 0.107582 45.9763H23.5319C23.0855 45.6706 22.6084 45.4107 22.1005 45.1662Z" fill="white"/>
<path d="M12.8971 35.3383H1.816C1.72366 35.537 1.61593 35.7204 1.53897 35.9191C1.13409 36.9943 0.810003 38.0978 0.569375 39.2206H14.667C13.8327 38.0507 13.2319 36.7328 12.8971 35.3383Z" fill="white"/>
<path d="M13.1586 29.1785C13.1586 28.9951 13.2818 28.8117 13.3433 28.6282H6.15599C5.05459 29.8141 4.07979 31.11 3.24719 32.4953H12.6046C12.636 31.3697 12.8224 30.2538 13.1586 29.1785Z" fill="white"/>
<path d="M18.3454 21.9794C15.1612 22.6083 12.1492 23.9059 9.51124 25.7853H14.744C15.7002 24.3088 16.9209 23.0189 18.3454 21.9794Z" fill="white"/>
<path d="M9.43422 76.6221H10.7732V79.1899C10.0163 79.7188 9.11304 80.0018 8.1876 80C7.73512 80.0307 7.28111 79.9687 6.85377 79.8178C6.42643 79.667 6.03488 79.4305 5.70343 79.123C5.37198 78.8156 5.10771 78.4437 4.92703 78.0306C4.74635 77.6175 4.65311 77.1719 4.65311 76.7214C4.65311 76.271 4.74635 75.8254 4.92703 75.4123C5.10771 74.9991 5.37198 74.6273 5.70343 74.3199C6.03488 74.0124 6.42643 73.7759 6.85377 73.625C7.28111 73.4742 7.73512 73.4122 8.1876 73.4429C8.68672 73.4183 9.1852 73.5027 9.6479 73.6902C10.1106 73.8777 10.5262 74.1637 10.8655 74.5281L9.91133 75.3993C9.70515 75.1688 9.45126 74.9853 9.16703 74.8613C8.8828 74.7373 8.57495 74.6758 8.26455 74.6809C7.72167 74.6809 7.20102 74.8951 6.81715 75.2764C6.43328 75.6576 6.21762 76.1746 6.21762 76.7138C6.21762 77.2529 6.43328 77.77 6.81715 78.1513C7.20102 78.5325 7.72167 78.7467 8.26455 78.7467C8.66658 78.7537 9.0638 78.659 9.41883 78.4715L9.43422 76.6221Z" fill="white"/>
<path d="M12.1429 73.5499H13.682V78.6856H16.8832V79.8778H12.266L12.1429 73.5499Z" fill="white"/>
<path d="M17.1449 76.7138C17.1441 76.267 17.2354 75.8248 17.4133 75.4144C17.5912 75.004 17.8518 74.6342 18.1792 74.3277C18.5065 74.0212 18.8936 73.7846 19.3166 73.6324C19.7396 73.4802 20.1895 73.4157 20.6385 73.4429C21.091 73.4122 21.545 73.4742 21.9723 73.625C22.3997 73.7759 22.7912 74.0124 23.1227 74.3199C23.4541 74.6273 23.7184 74.9991 23.8991 75.4123C24.0798 75.8254 24.173 76.271 24.173 76.7214C24.173 77.1719 24.0798 77.6175 23.8991 78.0306C23.7184 78.4437 23.4541 78.8156 23.1227 79.123C22.7912 79.4305 22.3997 79.667 21.9723 79.8178C21.545 79.9687 21.091 80.0307 20.6385 80C20.1887 80.025 19.7385 79.9585 19.3154 79.8045C18.8924 79.6506 18.5055 79.4125 18.1784 79.1048C17.8513 78.7971 17.5909 78.4264 17.4132 78.0152C17.2355 77.6041 17.1442 77.1612 17.1449 76.7138ZM22.6393 76.7138C22.6302 76.3229 22.5052 75.9433 22.2799 75.6227C22.0546 75.302 21.739 75.0544 21.3727 74.9111C21.0064 74.7677 20.6057 74.7348 20.2207 74.8166C19.8356 74.8983 19.4835 75.0911 19.2083 75.3707C18.933 75.6504 18.747 76.0044 18.6735 76.3886C18.6 76.7727 18.6422 77.1698 18.7949 77.5303C18.9476 77.8907 19.204 78.1983 19.5319 78.4147C19.8598 78.6311 20.2448 78.7466 20.6385 78.7467C20.907 78.7533 21.174 78.7048 21.4228 78.6044C21.6716 78.504 21.8969 78.3537 22.0847 78.163C22.2724 77.9722 22.4185 77.7451 22.514 77.4958C22.6094 77.2464 22.652 76.9802 22.6393 76.7138Z" fill="white"/>
<path d="M31.1039 78.1506C31.1039 79.2511 30.2267 79.8778 28.5491 79.8778H25.2402V73.5499H28.3183C29.8573 73.5499 30.7346 74.2072 30.7346 75.2007C30.7394 75.4881 30.6626 75.7711 30.5129 76.0171C30.3632 76.2631 30.1466 76.4623 29.8881 76.5916C30.2435 76.6671 30.5605 76.865 30.783 77.1503C31.0055 77.4357 31.1192 77.79 31.1039 78.1506ZM26.7176 74.6504V76.1789H28.1797C28.9031 76.1789 29.2879 75.9191 29.2879 75.4299C29.2879 74.9408 28.9031 74.681 28.1797 74.681L26.7176 74.6504ZM29.6111 77.9519C29.6111 77.4169 29.1955 77.1724 28.4414 77.1724H26.7176V78.7009H28.4414C29.2417 78.7773 29.6111 78.548 29.6111 77.9519Z" fill="white"/>
<path d="M36.4291 78.5327H33.4587L32.8893 79.8778H31.3503L34.1975 73.5499H35.7365L38.476 79.8778H36.937L36.4291 78.5327ZM35.952 77.4169L34.9516 74.9867L33.9358 77.4169H35.952Z" fill="white"/>
<path d="M39.1995 73.5499H40.7385V78.6856H43.9397V79.8778H39.3226L39.1995 73.5499Z" fill="white"/>
<path d="M46.7868 79.2664L47.2947 78.1506C47.9074 78.5807 48.6375 78.8153 49.3878 78.8231C50.265 78.8231 50.619 78.5327 50.619 78.1353C50.619 76.9431 46.9099 77.7685 46.9099 75.4146C46.9099 74.3294 47.7872 73.4429 49.6032 73.4429C50.3784 73.425 51.144 73.6151 51.8195 73.9931L51.3577 75.1089C50.8259 74.7966 50.221 74.628 49.6032 74.6198C48.726 74.6198 48.3874 74.9408 48.3874 75.3382C48.3874 76.4998 52.0965 75.705 52.0965 78.0283C52.0965 79.0829 51.2038 80 49.3878 80C48.4665 80.0187 47.5606 79.7632 46.7868 79.2664Z" fill="white"/>
<path d="M57.314 78.5327H54.3436L53.7741 79.8778H52.3274L55.1747 73.5499H56.6368L59.484 79.8778H57.945L57.314 78.5327ZM56.8522 77.4169L55.8365 74.9867L54.8207 77.4169H56.8522Z" fill="white"/>
<path d="M61.5617 74.7269V76.4234H64.5167V77.6004H61.5617V79.9083H60.0227V73.5499H64.8553V74.7269H61.5617Z" fill="white"/>
<path d="M70.796 78.7009V79.8778H65.9172V73.5499H70.796V74.7269H67.3793V76.1025H70.3497V77.2335H67.3793V78.762L70.796 78.7009Z" fill="white"/>
<path d="M74.2127 76.7138C74.2099 76.2691 74.2988 75.8285 74.4741 75.4193C74.6493 75.01 74.9071 74.6408 75.2316 74.3343C75.556 74.0278 75.9403 73.7906 76.3606 73.6373C76.781 73.484 77.2285 73.4178 77.6756 73.4428C78.1704 73.4214 78.6637 73.5105 79.1192 73.7036C79.5747 73.8967 79.9807 74.1889 80.3073 74.5586L79.3531 75.4299C79.1657 75.2027 78.9312 75.0183 78.6656 74.8891C78.4001 74.7599 78.1097 74.6889 77.8141 74.6809C77.2712 74.6809 76.7505 74.8951 76.3667 75.2763C75.9828 75.6576 75.7671 76.1746 75.7671 76.7138C75.7671 77.2529 75.9828 77.77 76.3667 78.1512C76.7505 78.5325 77.2712 78.7466 77.8141 78.7466C78.1097 78.7387 78.4001 78.6677 78.6656 78.5385C78.9312 78.4092 79.1657 78.2248 79.3531 77.9977L80.3073 78.8689C79.8458 79.3968 79.2351 79.7746 78.5545 79.9533C77.874 80.1319 77.1551 80.1032 76.4912 79.8708C75.8273 79.6384 75.2491 79.213 74.8318 78.65C74.4145 78.087 74.1773 77.4124 74.1511 76.7138H74.2127Z" fill="white"/>
<path d="M80.7536 76.7137C80.7166 76.0209 80.8897 75.3329 81.2505 74.7387C81.6112 74.1446 82.1431 73.6714 82.7773 73.3805C83.4116 73.0895 84.1191 72.9941 84.8085 73.1066C85.4979 73.219 86.1375 73.5341 86.6447 74.0112C87.152 74.4884 87.5035 75.1056 87.654 75.7831C87.8044 76.4607 87.7469 77.1675 87.4888 77.8122C87.2306 78.4569 86.7838 79.01 86.206 79.4C85.6281 79.79 84.9458 79.999 84.2472 79.9999C83.7969 80.0272 83.3457 79.9622 82.9217 79.8091C82.4976 79.656 82.1098 79.418 81.7822 79.1099C81.4546 78.8017 81.1943 78.4301 81.0174 78.0179C80.8404 77.6057 80.7506 77.1618 80.7536 76.7137ZM86.248 76.7137C86.2389 76.3228 86.1139 75.9433 85.8886 75.6226C85.6633 75.3019 85.3477 75.0544 84.9814 74.911C84.6151 74.7676 84.2144 74.7347 83.8293 74.8165C83.4443 74.8983 83.0921 75.091 82.8169 75.3707C82.5417 75.6503 82.3557 76.0044 82.2822 76.3885C82.2086 76.7726 82.2509 77.1698 82.4036 77.5302C82.5563 77.8906 82.8126 78.1983 83.1406 78.4146C83.4685 78.631 83.8535 78.7465 84.2472 78.7466C84.5105 78.7448 84.7708 78.6902 85.0124 78.5861C85.2539 78.4819 85.4718 78.3304 85.6529 78.1405C85.834 77.9506 85.9747 77.7264 86.0663 77.4812C86.158 77.236 86.1988 76.975 86.1864 76.7137H86.248Z" fill="white"/>
<path d="M92.9275 79.8778L91.6962 78.12H90.3265V79.8778H88.7874V73.5499H91.5577C93.2661 73.5499 94.328 74.4212 94.328 75.8426C94.3457 76.2699 94.2293 76.692 93.995 77.0507C93.7606 77.4094 93.4199 77.6869 93.0198 77.8449L94.4511 79.8778H92.9275ZM91.5423 74.7421H90.3265V76.9431H91.5423C92.435 76.9431 92.8967 76.5304 92.8967 75.8426C92.8967 75.1548 92.435 74.7421 91.5423 74.7421Z" fill="white"/>
<path d="M101.084 75.8426C101.084 77.2641 100.022 78.1353 98.3141 78.1353H97.0367V79.8778H95.4976V73.5499H98.2525C100.038 73.5499 101.084 74.4212 101.084 75.8426ZM99.5453 75.8426C99.5453 75.1548 99.099 74.7421 98.1909 74.7421H96.9905V76.9431H98.1909C99.1452 76.9431 99.5915 76.5304 99.5915 75.8426H99.5453Z" fill="white"/>
<path d="M101.823 76.7137C101.786 76.0209 101.959 75.3329 102.32 74.7387C102.681 74.1446 103.213 73.6714 103.847 73.3805C104.481 73.0895 105.189 72.9941 105.878 73.1066C106.567 73.219 107.207 73.5341 107.714 74.0112C108.221 74.4884 108.573 75.1056 108.723 75.7831C108.874 76.4607 108.816 77.1675 108.558 77.8122C108.3 78.4569 107.853 79.01 107.275 79.4C106.698 79.79 106.015 79.999 105.317 79.9999C104.866 80.0272 104.415 79.9622 103.991 79.8091C103.567 79.656 103.179 79.418 102.852 79.1099C102.524 78.8017 102.264 78.4301 102.087 78.0179C101.91 77.6057 101.82 77.1618 101.823 76.7137ZM107.317 76.7137C107.308 76.3228 107.183 75.9433 106.958 75.6226C106.733 75.3019 106.417 75.0544 106.051 74.911C105.685 74.7676 105.284 74.7347 104.899 74.8165C104.514 74.8983 104.162 75.091 103.886 75.3707C103.611 75.6503 103.425 76.0044 103.352 76.3885C103.278 76.7726 103.32 77.1698 103.473 77.5302C103.626 77.8906 103.882 78.1983 104.21 78.4146C104.538 78.631 104.923 78.7465 105.317 78.7466C105.585 78.7532 105.852 78.7048 106.101 78.6043C106.35 78.5039 106.575 78.3536 106.763 78.1629C106.951 77.9721 107.097 77.745 107.192 77.4957C107.288 77.2463 107.33 76.9802 107.317 76.7137Z" fill="white"/>
<path d="M113.997 79.8778L112.766 78.12H111.396V79.8778H109.857V73.5499H112.627C114.336 73.5499 115.397 74.4212 115.397 75.8426C115.415 76.2699 115.299 76.692 115.064 77.0507C114.83 77.4094 114.489 77.6869 114.089 77.8449L115.521 79.8778H113.997ZM112.612 74.7421H111.396V76.9431H112.612C113.504 76.9431 113.966 76.5304 113.966 75.8426C113.966 75.1548 113.504 74.7421 112.612 74.7421Z" fill="white"/>
<path d="M120.83 78.5327H117.86L117.306 79.8778H115.767L118.614 73.5499H120.153L123 79.8778H121.461L120.83 78.5327ZM120.369 77.4169L119.353 74.9867L118.337 77.4169H120.369Z" fill="white"/>
<path d="M124.663 74.7421H122.57V73.5499H128.125V74.7421H126.094V79.8778H124.663V74.7421Z" fill="white"/>
<path d="M128.926 73.5499H130.465V79.8778H128.926V73.5499Z" fill="white"/>
<path d="M131.511 76.7137C131.474 76.0209 131.647 75.3329 132.008 74.7387C132.369 74.1446 132.901 73.6714 133.535 73.3805C134.169 73.0895 134.877 72.9941 135.566 73.1066C136.256 73.219 136.895 73.5341 137.402 74.0112C137.91 74.4884 138.261 75.1056 138.412 75.7831C138.562 76.4607 138.505 77.1675 138.247 77.8122C137.988 78.4569 137.542 79.01 136.964 79.4C136.386 79.79 135.704 79.999 135.005 79.9999C134.555 80.0272 134.103 79.9622 133.679 79.8091C133.255 79.656 132.868 79.418 132.54 79.1099C132.212 78.8017 131.952 78.4301 131.775 78.0179C131.598 77.6057 131.508 77.1618 131.511 76.7137ZM137.006 76.7137C136.997 76.3228 136.872 75.9433 136.646 75.6226C136.421 75.3019 136.105 75.0544 135.739 74.911C135.373 74.7676 134.972 74.7347 134.587 74.8165C134.202 74.8983 133.85 75.091 133.575 75.3707C133.299 75.6503 133.113 76.0044 133.04 76.3885C132.966 76.7726 133.009 77.1698 133.161 77.5302C133.314 77.8906 133.57 78.1983 133.898 78.4146C134.226 78.631 134.611 78.7465 135.005 78.7466C135.271 78.749 135.534 78.6974 135.78 78.5951C136.025 78.4928 136.246 78.3419 136.431 78.1516C136.615 77.9613 136.759 77.7356 136.852 77.4884C136.946 77.2411 136.987 76.9775 136.975 76.7137H137.006Z" fill="white"/>
<path d="M145.471 73.5499V79.8778H144.255L141.069 76.0413V79.8778H139.53V73.5499H140.761L143.932 77.4017V73.5499H145.471Z" fill="white"/>
<path d="M152.365 4.17277C152.4 4.74505 152.317 5.31835 152.12 5.85741C151.924 6.39647 151.618 6.88989 151.222 7.30733C150.827 7.72477 150.349 8.0574 149.819 8.28476C149.289 8.51212 148.718 8.62941 148.141 8.62941C147.563 8.62941 146.992 8.51212 146.462 8.28476C145.932 8.0574 145.455 7.72477 145.059 7.30733C144.663 6.88989 144.358 6.39647 144.161 5.85741C143.965 5.31835 143.881 4.74505 143.916 4.17277C143.912 3.61976 144.019 3.07151 144.232 2.56036C144.444 2.04921 144.758 1.5855 145.154 1.19659C145.55 0.807686 146.02 0.50145 146.537 0.295948C147.054 0.0904447 147.607 -0.010164 148.164 5.52579e-05C148.718 -0.0103208 149.269 0.0905204 149.784 0.296546C150.298 0.502571 150.766 0.809546 151.158 1.19911C151.55 1.58866 151.859 2.0528 152.067 2.56375C152.274 3.07469 152.376 3.62195 152.365 4.17277ZM151.55 4.17277C151.55 3.27689 151.191 2.41771 150.553 1.78423C149.916 1.15075 149.05 0.794858 148.148 0.794858C147.246 0.794858 146.381 1.15075 145.743 1.78423C145.105 2.41771 144.747 3.27689 144.747 4.17277C144.726 4.62622 144.799 5.07915 144.961 5.50353C145.123 5.92791 145.371 6.3147 145.69 6.63995C146.009 6.9652 146.392 7.22199 146.815 7.39442C147.237 7.56685 147.691 7.65125 148.148 7.64239C148.605 7.64675 149.057 7.5594 149.479 7.38559C149.901 7.21179 150.282 6.95513 150.602 6.63103C150.921 6.30694 151.171 5.9221 151.336 5.49965C151.502 5.0772 151.58 4.62586 151.565 4.17277H151.55ZM149.487 4.95229L150.503 6.48076H149.287L148.41 5.15099H147.594V6.48076H146.348V1.89536H148.364C149.626 1.89536 150.38 2.53731 150.38 3.5461C150.385 3.83938 150.305 4.1279 150.149 4.37724C149.994 4.62658 149.769 4.82621 149.503 4.95229H149.487ZM148.256 4.23391C148.81 4.23391 149.133 3.97407 149.133 3.53082C149.133 3.08756 148.81 2.79715 148.256 2.79715H147.548V4.23391H148.256Z" fill="white"/>
</svg>
