<svg width="24" height="24" viewBox="0 0 24 24" fill="none" xmlns="http://www.w3.org/2000/svg">
<g clip-path="url(#clip0_2_1892)">
<path d="M20.3906 16.0781C20.3906 16.5959 19.9709 17.0156 19.4531 17.0156C18.2095 16.9663 18.2099 15.1898 19.4531 15.1406C19.9709 15.1406 20.3906 15.5603 20.3906 16.0781ZM24 16.0781C24 20.1743 20.2413 23.614 20.0812 23.7585C19.7263 24.0788 19.1871 24.0807 18.83 23.763C18.6698 23.6204 14.9062 20.2246 14.9062 16.0781C14.9062 13.571 16.946 11.5312 19.4531 11.5312C21.9603 11.5312 24 13.571 24 16.0781ZM22.125 16.0781C21.9781 12.5333 16.9275 12.5347 16.7812 16.0781C16.7812 18.4667 18.4932 20.6769 19.4496 21.7252C20.4064 20.6677 22.125 18.4393 22.125 16.0781ZM24 0.9375V9.70312C23.9505 10.947 22.1741 10.9461 22.125 9.70312V3.29752C22.125 3.29752 9.18614 16.2978 9.19416 16.3058L15.241 22.3527C15.4168 22.5285 15.5156 22.767 15.5156 23.0156V23.0625C15.5156 23.5802 15.0959 24 14.5781 24H0.9375C0.419719 24 0 23.5802 0 23.0625V0.9375C0 0.419719 0.419719 0 0.9375 0H23.0625C23.5803 0 24 0.419719 24 0.9375ZM20.8957 1.875H14.0745C14.0652 1.88517 8.63836 7.3125 8.63836 7.3125L12.0584 10.7325L20.8957 1.875ZM10.734 12.0599L1.875 3.20081V20.9391L10.734 12.0599ZM7.3125 5.98669L11.4241 1.875H3.20081L7.3125 5.98669ZM3.34045 22.125H12.3616L7.8683 17.6317C7.86084 17.6242 3.34045 22.125 3.34045 22.125Z" fill="white"/>
</g>
<defs>
<clipPath id="clip0_2_1892">
<rect width="24" height="24" fill="white"/>
</clipPath>
</defs>
</svg>
