<svg width="48" height="48" viewBox="0 0 48 48" fill="none" xmlns="http://www.w3.org/2000/svg">
<path d="M31.48 0C27.76 0 24.34 1.54 22 4.14C19.66 1.54 16.24 0 12.52 0C5.62 0 0 5.38 0 12C0 28.94 20.12 41.2 20.98 41.72C21.28 41.9 21.64 42 22 42C22.16 42 22.3 41.98 22.46 41.94C20.92 39.68 20 36.94 20 34C20 26.28 26.28 20 34 20C36.8 20 39.4 20.82 41.58 22.24C43.06 19.08 44 15.66 44 12C44 5.38 38.38 0 31.48 0Z" fill="#2FBBB2"/>
<path d="M47.414 44.586L42.334 39.506C43.382 37.924 44 36.034 44 34C44 28.486 39.514 24 34 24C28.486 24 24 28.486 24 34C24 39.514 28.486 44 34 44C36.034 44 37.924 43.382 39.506 42.334L44.586 47.414C45.368 48.196 46.632 48.196 47.414 47.414C48.196 46.632 48.196 45.368 47.414 44.586ZM34 40C30.692 40 28 37.308 28 34C28 30.692 30.692 28 34 28C37.308 28 40 30.692 40 34C40 37.308 37.308 40 34 40Z" fill="#2FBBB2"/>
</svg>
