<svg width="24" height="24" viewBox="0 0 24 24" fill="none" xmlns="http://www.w3.org/2000/svg">
<g clip-path="url(#clip0_2_1898)">
<path d="M23.0606 12.1883C22.5429 12.1883 22.1232 11.7686 22.1232 11.2509C22.1232 6.08214 17.9181 1.877 12.7493 1.877C12.2315 1.877 11.8119 1.45733 11.8119 0.939606C11.8119 0.421885 12.2315 0.00221438 12.7493 0.00221438C18.7956 -0.122693 24.123 5.2046 23.9979 11.251C23.998 11.7686 23.5783 12.1883 23.0606 12.1883ZM16.4988 11.2509C16.4988 9.18341 14.8168 7.50135 12.7493 7.50135C12.2315 7.50135 11.8119 7.92102 11.8119 8.43874C11.8119 8.95646 12.2315 9.37613 12.7493 9.37613C13.783 9.37613 14.6241 10.2172 14.6241 11.2509C14.6241 11.7686 15.0437 12.1883 15.5614 12.1883C16.0792 12.1883 16.4988 11.7686 16.4988 11.2509ZM20.2484 11.2509C20.2484 7.11589 16.8843 3.75178 12.7493 3.75178C12.2315 3.75178 11.8119 4.17145 11.8119 4.68917C11.8119 5.2069 12.2315 5.62657 12.7493 5.62657C15.8505 5.62657 18.3736 8.14965 18.3736 11.2509C18.3736 11.7686 18.7933 12.1883 19.311 12.1883C19.8287 12.1883 20.2484 11.7686 20.2484 11.2509ZM16.5193 23.9997C16.7606 23.9943 16.9906 23.8961 17.1613 23.7254L20.5359 20.3507C20.902 19.9846 20.902 19.3911 20.5359 19.0251L15.4389 13.928C15.0728 13.5619 14.4792 13.5619 14.1132 13.928L12.8419 15.1993C11.5702 14.588 9.389 12.3988 8.79755 11.1294L10.0561 9.87094C10.4192 9.52185 10.4192 8.89431 10.0561 8.54528L4.92833 3.41746C4.56223 3.05136 3.96872 3.05136 3.60267 3.41746L0.274927 6.7452C0.103009 6.91712 0.00458291 7.14913 0.000505253 7.39224C-0.0140243 14.2629 9.30365 23.9141 16.4777 24.0001C16.4977 24.0001 16.5117 23.9998 16.5193 23.9997ZM4.2655 5.406L8.06761 9.20811L7.0241 10.2516C6.78769 10.488 6.69508 10.8325 6.78108 11.1556C7.27326 13.135 10.8698 16.7267 12.8106 17.2188C13.1339 17.3056 13.4795 17.2132 13.7164 16.9763L14.776 15.9166L18.5474 19.688L16.1289 22.1064C10.9301 21.8018 2.56924 14.5745 1.89704 7.77441L4.2655 5.406Z" fill="white"/>
</g>
<defs>
<clipPath id="clip0_2_1898">
<rect width="24" height="24" fill="white"/>
</clipPath>
</defs>
</svg>
