<svg width="56" height="56" viewBox="0 0 56 56" fill="none" xmlns="http://www.w3.org/2000/svg">
<path d="M26.4221 22.9917L17.3491 32.5979L25.6061 28.0674L29.9204 32.5979L38.9426 22.9917L30.777 27.4427L26.4221 22.9917Z" fill="#0A7CFF"/>
<path d="M28 0C12.5384 0 0 12.5384 0 28C0 43.4616 12.5384 56 28 56C43.4616 56 56 43.4616 56 28C56 12.5384 43.4616 0 28 0ZM28.2188 42.9882C26.4854 42.9882 24.8123 42.7434 23.2383 42.2901L17.5919 45.5V39.4613C13.8099 36.5834 11.3947 32.2003 11.3947 27.2912C11.3947 18.6215 18.927 11.5938 28.2188 11.5938C37.5109 11.5938 45.0428 18.6215 45.0428 27.2912C45.0428 35.96 37.5109 42.9882 28.2188 42.9882Z" fill="#0A7CFF"/>
</svg>
