<svg width="12" height="13" viewBox="0 0 12 13" fill="none" xmlns="http://www.w3.org/2000/svg">
<g clip-path="url(#clip0_155_1027)">
<path d="M6 0.5C2.68352 0.5 0 3.18376 0 6.5C0 9.81648 2.68376 12.5 6 12.5C9.31648 12.5 12 9.81624 12 6.5C12 3.18352 9.31622 0.5 6 0.5ZM6 11.5625C3.20173 11.5625 0.9375 9.29809 0.9375 6.5C0.9375 3.70173 3.20191 1.4375 6 1.4375C8.79827 1.4375 11.0625 3.70191 11.0625 6.5C11.0625 9.29827 8.79806 11.5625 6 11.5625Z" fill="#54CCB6"/>
<path d="M6 5.52344C5.74111 5.52344 5.53125 5.7333 5.53125 5.99219V9.01078C5.53125 9.26967 5.74111 9.47953 6 9.47953C6.25889 9.47953 6.46875 9.26965 6.46875 9.01076V5.99219C6.46875 5.7333 6.25889 5.52344 6 5.52344Z" fill="#54CCB6"/>
<path d="M6 4.94946C6.34949 4.94946 6.63281 4.66614 6.63281 4.31665C6.63281 3.96716 6.34949 3.68384 6 3.68384C5.65051 3.68384 5.36719 3.96716 5.36719 4.31665C5.36719 4.66614 5.65051 4.94946 6 4.94946Z" fill="#54CCB6"/>
</g>
<defs>
<clipPath id="clip0_155_1027">
<rect width="12" height="12" fill="white" transform="translate(0 0.5)"/>
</clipPath>
</defs>
</svg>
