<svg width="70" height="80" viewBox="0 0 70 80" fill="none" xmlns="http://www.w3.org/2000/svg">
<path d="M68.1473 12.7903L56.2723 0.915312C55.6863 0.329219 54.8914 0 54.0625 0H4.0625C2.33656 0 0.9375 1.39906 0.9375 3.125V76.875C0.9375 78.6009 2.33656 80 4.0625 80H65.9375C67.6634 80 69.0625 78.6009 69.0625 76.875V15C69.0625 14.1713 68.7333 13.3763 68.1473 12.7903ZM62.8125 73.75H7.1875V6.25H52.7681L62.8125 16.2944V73.75ZM35 30.625C40.1694 30.625 44.375 26.4194 44.375 21.25C44.375 16.0806 40.1694 11.875 35 11.875C29.8306 11.875 25.625 16.0806 25.625 21.25C25.625 26.4194 29.8306 30.625 35 30.625ZM35 18.125C36.7231 18.125 38.125 19.5269 38.125 21.25C38.125 22.9731 36.7231 24.375 35 24.375C33.2769 24.375 31.875 22.9731 31.875 21.25C31.875 19.5269 33.2769 18.125 35 18.125ZM50.625 65C50.625 66.7259 49.2259 68.125 47.5 68.125H22.5C20.7741 68.125 19.375 66.7259 19.375 65C19.375 63.2741 20.7741 61.875 22.5 61.875H47.5C49.2259 61.875 50.625 63.2741 50.625 65ZM50.625 52.5C50.625 54.2259 49.2259 55.625 47.5 55.625H22.5C20.7741 55.625 19.375 54.2259 19.375 52.5C19.375 50.7741 20.7741 49.375 22.5 49.375H47.5C49.2259 49.375 50.625 50.7741 50.625 52.5ZM19.375 40C19.375 38.2741 20.7741 36.875 22.5 36.875H46.6038C48.3297 36.875 49.7288 38.2741 49.7288 40C49.7288 41.7259 48.3297 43.125 46.6038 43.125H22.5C20.7741 43.125 19.375 41.7259 19.375 40Z" fill="#C9C9C9"/>
</svg>
