<svg width="21" height="21" viewBox="0 0 21 21" fill="none" xmlns="http://www.w3.org/2000/svg">
<path fill-rule="evenodd" clip-rule="evenodd" d="M3.84402 0.0593262L17.4066 0.0593262C19.0117 0.0593262 20.3129 1.44233 20.3129 3.14836L20.3129 17.5639C20.3129 19.2699 19.0117 20.6529 17.4066 20.6529L3.84402 20.6529C2.23893 20.6529 0.937744 19.2699 0.937744 17.5639L0.937744 3.14836C0.937744 1.44233 2.23893 0.0593262 3.84402 0.0593262ZM9.36593 15.1956L13.241 11.0769C13.622 10.6809 13.6306 10.0323 13.2603 9.62502L9.3853 5.5063C9.1413 5.24512 8.78473 5.14213 8.44992 5.23614C8.1151 5.33015 7.85291 5.60687 7.7621 5.96206C7.67129 6.31726 7.76566 6.69696 8.00966 6.95815L11.1872 10.3561L7.99998 13.7437C7.62436 14.1453 7.62436 14.794 7.99998 15.1956C8.37783 15.5948 8.98808 15.5948 9.36593 15.1956Z" fill="#2FBBB2"/>
</svg>
