<svg width="12" height="12" viewBox="0 0 12 12" fill="none" xmlns="http://www.w3.org/2000/svg">
<path d="M1.52866 2.75275H1.51133C1.32262 2.76415 1.13359 2.73645 0.956044 2.6714C0.778499 2.60634 0.616251 2.50531 0.479432 2.37463C0.342612 2.24395 0.23416 2.08641 0.160847 1.91186C0.0875333 1.73731 0.0509338 1.54949 0.0533335 1.36014C0.0557332 1.17078 0.0970805 0.983956 0.174794 0.811326C0.252507 0.638695 0.364917 0.483968 0.505004 0.356805C0.645091 0.229642 0.809847 0.132775 0.988983 0.0722526C1.16812 0.0117302 1.35779 -0.0111479 1.54615 0.0050472C1.73544 -0.00868501 1.92552 0.0169607 2.10444 0.0803717C2.28336 0.143783 2.44725 0.243587 2.5858 0.373511C2.72435 0.503434 2.83456 0.660666 2.90952 0.835319C2.98447 1.00997 3.02254 1.19827 3.02133 1.38838C3.02012 1.57848 2.97965 1.76628 2.90248 1.93996C2.82531 2.11364 2.7131 2.26945 2.57291 2.39759C2.43272 2.52574 2.26757 2.62344 2.08786 2.68456C1.90815 2.74568 1.71776 2.7689 1.52866 2.75275Z" fill="#374151"/>
<path d="M2.76843 4.60217H0.306641V12H2.76843V4.60217Z" fill="#374151"/>
<path d="M9.23035 4.60217C8.81551 4.60331 8.40629 4.69835 8.03329 4.8802C7.66028 5.06204 7.33313 5.32599 7.07629 5.65231V4.60217H4.6145V12H7.07629V8.60931C7.07629 8.28231 7.20597 7.9687 7.43681 7.73747C7.66764 7.50625 7.98073 7.37635 8.30718 7.37635C8.63363 7.37635 8.94672 7.50625 9.17755 7.73747C9.40839 7.9687 9.53807 8.28231 9.53807 8.60931V12H11.9999V7.37635C11.9999 7.01204 11.9282 6.65129 11.789 6.31472C11.6499 5.97814 11.4459 5.67232 11.1887 5.41471C10.9315 5.1571 10.6262 4.95276 10.2902 4.81334C9.95418 4.67393 9.59405 4.60217 9.23035 4.60217Z" fill="#374151"/>
</svg>
