<svg width="15" height="12" viewBox="0 0 15 12" fill="none" xmlns="http://www.w3.org/2000/svg">
<path d="M4.89363 12C9.96521 12 12.7392 7.38337 12.7392 3.38026C12.7392 3.24885 12.7392 3.11816 12.7312 2.98896C13.2709 2.55966 13.7367 2.02814 14.1068 1.41932C13.6035 1.66444 13.0696 1.82521 12.5228 1.89627C13.0985 1.51756 13.5293 0.921959 13.7351 0.22031C13.194 0.573137 12.6019 0.82183 11.9846 0.955663C11.5689 0.469684 11.0189 0.147833 10.4199 0.0399447C9.82089 -0.0679438 9.2062 0.0441489 8.67102 0.358867C8.13585 0.673585 7.71004 1.17337 7.45952 1.78084C7.20901 2.38831 7.14776 3.06957 7.28528 3.71915C6.18897 3.65878 5.11647 3.3458 4.13739 2.80052C3.15831 2.25524 2.29455 1.48985 1.60217 0.554024C1.24959 1.22087 1.14158 2.01028 1.30013 2.76154C1.45869 3.5128 1.87189 4.16942 2.45561 4.59773C2.01697 4.58378 1.58781 4.45413 1.20435 4.21972V4.25811C1.20461 4.95751 1.42503 5.63528 1.82823 6.1765C2.23143 6.71772 2.7926 7.08907 3.41657 7.22758C3.01056 7.34919 2.58456 7.36687 2.17136 7.27926C2.34753 7.88133 2.69059 8.40784 3.15256 8.78513C3.61453 9.16241 4.17229 9.37161 4.7478 9.38344C4.17601 9.87705 3.52126 10.242 2.821 10.4573C2.12073 10.6727 1.38869 10.7343 0.666748 10.6386C1.92783 11.5277 3.3952 11.9993 4.89363 11.997" fill="#374151"/>
</svg>
