<svg width="38" height="38" viewBox="0 0 38 38" fill="none" xmlns="http://www.w3.org/2000/svg">
<path fill-rule="evenodd" clip-rule="evenodd" d="M28.1533 9.84643C28.2639 9.95674 28.3516 10.0878 28.4115 10.2321C28.4713 10.3763 28.5022 10.531 28.5022 10.6872C28.5022 10.8434 28.4713 10.998 28.4115 11.1423C28.3516 11.2866 28.2639 11.4176 28.1533 11.5279L11.5283 28.1529C11.3053 28.3759 11.0029 28.5012 10.6875 28.5012C10.3722 28.5012 10.0698 28.3759 9.84678 28.1529C9.6238 27.9299 9.49854 27.6275 9.49854 27.3122C9.49854 26.9968 9.6238 26.6944 9.84678 26.4714L26.4718 9.84643C26.5821 9.73584 26.7131 9.6481 26.8574 9.58824C27.0017 9.52837 27.1563 9.49756 27.3125 9.49756C27.4687 9.49756 27.6234 9.52837 27.7677 9.58824C27.9119 9.6481 28.043 9.73584 28.1533 9.84643Z" fill="#8E8E8E"/>
<path fill-rule="evenodd" clip-rule="evenodd" d="M9.84668 9.84643C9.73609 9.95674 9.64835 10.0878 9.58848 10.2321C9.52862 10.3763 9.4978 10.531 9.4978 10.6872C9.4978 10.8434 9.52862 10.998 9.58848 11.1423C9.64835 11.2866 9.73609 11.4176 9.84668 11.5279L26.4717 28.1529C26.6947 28.3759 26.9971 28.5012 27.3124 28.5012C27.6278 28.5012 27.9302 28.3759 28.1532 28.1529C28.3762 27.9299 28.5014 27.6275 28.5014 27.3122C28.5014 26.9968 28.3762 26.6944 28.1532 26.4714L11.5282 9.84643C11.4179 9.73584 11.2868 9.6481 11.1426 9.58824C10.9983 9.52837 10.8436 9.49756 10.6874 9.49756C10.5312 9.49756 10.3766 9.52837 10.2323 9.58824C10.088 9.6481 9.95698 9.73584 9.84668 9.84643Z" fill="#8E8E8E"/>
</svg>
