<svg width="21" height="22" viewBox="0 0 21 22" fill="none" xmlns="http://www.w3.org/2000/svg">
<path fill-rule="evenodd" clip-rule="evenodd" d="M20.6531 3.78456L20.6531 18.2341C20.6531 19.9442 19.2701 21.3304 17.564 21.3304L3.14855 21.3304C1.44252 21.3304 0.0595161 19.9442 0.0595161 18.2341L0.0595168 3.78456C0.0595168 2.07451 1.44252 0.688232 3.14855 0.688232L17.564 0.688232C19.2701 0.688232 20.6531 2.07451 20.6531 3.78456ZM5.51683 9.66758L9.63554 13.796C10.0315 14.202 10.6801 14.2112 11.0874 13.8167L15.2061 9.68822C15.4673 9.42826 15.5703 9.04838 15.4763 8.69167C15.3823 8.33496 15.1055 8.05562 14.7503 7.95887C14.3951 7.86212 14.0154 7.96266 13.7543 8.22262L10.3563 11.608L6.96868 8.2123C6.56706 7.81213 5.91844 7.81213 5.51683 8.2123C5.1176 8.61486 5.1176 9.26502 5.51683 9.66758Z" fill="#2FBBB2"/>
</svg>
