<svg width="183" height="285" viewBox="0 0 183 285" fill="none" xmlns="http://www.w3.org/2000/svg">
<path d="M168.577 185.837H110.903V277.35H168.577V185.837Z" fill="#B2B2B2"/>
<path d="M111.128 185.837H53.4543V277.35H111.128V185.837Z" fill="#D1D1D1"/>
<path d="M80.9118 74.8621L78.4532 124.053L66.8921 160.125H87.7058L98.5161 129.045L101.894 93.7239L80.9118 74.8621Z" fill="#F7EBE7"/>
<path d="M80.33 246.795L84.5152 266.295L70.458 267.966L66.4604 248.766L80.33 246.795Z" fill="#FCC9A7"/>
<path d="M85.36 264.531C85.0034 263.48 83.8773 263.105 83.1078 263.78C81.6064 265.113 78.9038 266.746 74.9062 266.352C70.7585 265.939 69.2008 263.499 68.6002 261.735C68.2811 260.815 67.399 260.346 66.6108 260.74L41.4429 273.39C39.9227 274.159 38.7215 275.586 38.121 277.368C37.5579 279.039 38.684 280.841 40.2605 280.803L83.746 279.602C85.4538 279.564 86.7675 277.875 86.6174 275.923L85.9042 266.352C85.8854 266.202 85.8667 266.033 85.8104 265.882L85.36 264.531Z" fill="#1F252A"/>
<path d="M80.086 152.505H47.4485C47.4485 152.505 27.5732 151.398 26.3908 167.707C25.2085 184.017 55.5375 230.674 60.2858 255.598L87.5744 253.345L67.9244 185.574L116.796 185.856C120.418 185.875 124.022 185.349 127.438 184.167C136.953 180.864 151.479 176.134 143.559 149.934L80.086 152.505Z" fill="#092330"/>
<path d="M105.273 246.87L111.917 270.18L97.8593 271.851L91.4031 248.841L105.273 246.87Z" fill="#FCC9A7"/>
<path d="M112.761 268.416C112.404 267.365 111.278 266.99 110.509 267.665C109.007 268.998 106.305 270.631 102.307 270.237C98.1595 269.824 96.6017 267.384 96.0011 265.62C95.6821 264.7 94.8 264.231 94.0117 264.625L68.8439 277.275C67.3237 278.044 66.1225 279.47 65.522 281.253C64.9589 282.924 66.085 284.725 67.6615 284.688L111.898 283.487C113.606 283.449 114.919 281.76 114.769 279.808L113.286 270.237C113.268 270.086 113.249 269.918 113.193 269.767L112.761 268.416Z" fill="#1F252A"/>
<path d="M119.086 55.531C119.818 56.2442 152.568 64.5959 152.568 64.5959L145.567 83.195L109.758 80.4924L119.086 55.531Z" fill="#F7EBE7"/>
<path d="M105.573 60.0166C105.573 60.0166 84.2337 67.8053 80.9117 74.8621C82.0566 84.8278 85.5662 94.4183 91.3467 102.62C98.441 112.68 107.206 129.965 105.592 152.505H167.282C167.282 152.505 163.96 89.0882 145.699 64.7461L105.573 60.0166Z" fill="#F7EBE7"/>
<path d="M112.573 70.0762C118.636 68.8375 122.539 62.9256 121.301 56.8635L117.678 39.1278L95.7386 43.6134L99.3609 61.3491C100.6 67.4111 106.511 71.3149 112.573 70.0762Z" fill="#FCC9A7"/>
<path d="M119.18 45.3213C119.18 45.3213 116.872 59.6976 105.686 60.5609C95.889 61.3116 96.8274 47.1418 96.8274 47.1418L119.18 45.3213Z" fill="#F4BE9A"/>
<path d="M106.568 52.6783L108.501 52.2279C118.204 49.9757 124.247 40.2914 121.995 30.6072L119.443 19.5528C117.191 9.84979 107.506 3.80651 97.8221 6.05866L95.8889 6.5091C86.1859 8.76125 80.1426 18.4455 82.3947 28.1298L84.9473 39.1841C87.1994 48.8872 96.8836 54.9304 106.568 52.6783Z" fill="#FCC9A7"/>
<path d="M115.914 35.2054C115.464 35.9748 115.032 37.1385 114.882 38.9026C114.713 41.136 113.587 43.2568 111.71 44.4955C106.324 48.0614 102.214 39.034 94.2562 40.6293C94.2562 40.6293 91.1407 41.0985 90.5214 44.5706C89.902 48.0239 85.5666 41.9806 84.6094 37.8516C83.6523 33.7227 83.1644 58.29 102.758 56.2067C102.758 56.2067 112.649 55.8877 119.311 45.8093C120.043 44.7019 120.475 43.4069 120.513 42.0744C120.569 40.1038 120.287 37.1197 118.411 34.9801C117.754 34.1919 116.44 34.3045 115.914 35.2054Z" fill="#1C2226"/>
<path d="M115.933 29.6312C115.933 29.6312 107.469 26.8348 108.895 14.4667C108.895 14.4667 87.875 34.3608 72.2976 19.7593C72.2976 19.7593 79.2606 17.9013 82.1321 13.1342C87.3684 4.44463 102.42 -7.52932 114.469 6.32144C114.469 6.32144 129.127 4.05051 124.923 26.6284L115.933 29.6312Z" fill="#1C2226"/>
<path d="M115.933 29.6312C116.74 33.0845 120.193 35.2429 123.647 34.4546C127.119 33.6476 129.258 30.1943 128.47 26.741C127.663 23.2877 124.21 21.1293 120.756 21.9176C117.284 22.7246 115.126 26.1779 115.933 29.6312Z" fill="#FCC9A7"/>
<path d="M105.235 69.3818L114.3 69.5507L107.956 82.6883L101.106 70.095L105.235 69.3818Z" fill="#0C2C40"/>
<path d="M122.07 56.1128L110.397 69.7383L117.998 78.4654L131.98 59.247C131.98 59.247 128.395 53.4853 122.07 56.1128Z" fill="#FFF7F3"/>
<path d="M105.235 69.3819L98.5163 76.9641L93.7867 65.1403C93.7867 65.1403 95.0255 59.829 98.8917 60.8424L105.235 69.3819Z" fill="#FFF7F3"/>
<path d="M107.712 78.4468C107.712 78.4468 98.9478 101.306 101.125 133.737L109.758 141.62L119.836 131.917L108.97 76.9641L107.712 78.4468Z" fill="#0C2C40"/>
<path d="M124.097 132.724L105.329 138.898L104.09 149.915L128.977 142.483L124.097 132.724Z" fill="#FCC9A7"/>
<path d="M108.125 146.18C108.125 152.618 102.908 157.854 96.4517 157.854C90.0143 157.854 84.7781 152.636 84.7781 146.18C84.7781 139.743 89.9955 134.507 96.4517 134.507C102.889 134.507 108.125 139.724 108.125 146.18Z" fill="#FCC9A7"/>
<path d="M105.573 152.505H72.9544C72.9544 152.505 53.0791 151.398 51.8968 167.707C50.7144 184.017 83.2768 233.677 88.025 258.582L115.314 256.33L93.4302 185.556L142.302 185.837C145.924 185.856 149.528 185.33 152.943 184.148C162.459 180.845 176.985 176.115 169.065 149.915L105.573 152.505Z" fill="#0C2C40"/>
<path d="M7.17242 94.8312H63.5702C65.4282 94.8312 67.0235 96.1262 67.4176 97.9467L78.0402 147.757C78.5657 150.197 76.689 152.505 74.1928 152.505H16.8567C14.9799 152.505 13.3659 151.173 13.0093 149.333L3.32501 99.5232C2.83705 97.0833 4.69505 94.8312 7.17242 94.8312Z" fill="#B2B2B2"/>
<path d="M3.9256 94.8312H60.3046C62.1626 94.8312 63.7579 96.1262 64.1521 97.9467L74.7747 147.757C75.3002 150.197 73.4422 152.505 70.9273 152.505H13.6099C11.7331 152.505 10.1191 151.173 9.76246 149.333L0.0781868 99.5232C-0.40978 97.0833 1.44823 94.8312 3.9256 94.8312Z" fill="#D1D1D1"/>
<path d="M76.5013 148.245H115.032C116.214 148.245 117.153 149.202 117.153 150.366C117.153 151.548 116.195 152.486 115.032 152.486H75.7505L76.5013 148.245Z" fill="#B2B2B2"/>
<path d="M38.8339 122.364C38.8339 125.761 36.0938 128.501 32.6968 128.501C29.2998 128.501 26.5597 125.742 26.5597 122.364C26.5597 118.967 29.3186 116.227 32.6968 116.227C36.0938 116.227 38.8339 118.967 38.8339 122.364Z" fill="white"/>
<path d="M139.112 82.3129L159.719 115.589L110.397 133.193L117.153 147.794C117.153 147.794 159.325 143.065 179.707 127.356C181.583 125.911 182.522 123.565 182.203 121.219C181.246 113.712 177.154 95.4881 159.719 69.5883C156.172 64.3145 149.115 62.7192 143.616 65.9097C137.892 69.2129 135.883 76.5324 139.112 82.3129Z" fill="#F7EBE7"/>
<path d="M123.515 128.501L159.719 115.588L141.608 86.3292" stroke="#EADDD8" stroke-width="0.7599" stroke-miterlimit="10" stroke-linecap="round" stroke-linejoin="round"/>
<path d="M99.0043 117.484L90.0895 93.9491" stroke="#EADDD8" stroke-width="0.7599" stroke-miterlimit="10" stroke-linecap="round" stroke-linejoin="round"/>
<path d="M124.097 146.8C124.097 146.8 151.798 143.328 165.762 135.332" stroke="#EADDD8" stroke-width="0.7599" stroke-miterlimit="10" stroke-linecap="round" stroke-linejoin="round"/>
</svg>
