<svg width="239" height="353" viewBox="0 0 239 353" fill="none" xmlns="http://www.w3.org/2000/svg">
<path d="M85.2632 319.661L89.2449 342.967L100.788 344.081L96.7884 318.054L85.2632 319.661Z" fill="#FCC9A7"/>
<path d="M87.6559 341.36C87.8934 340.538 88.7518 340.227 89.3728 340.72C90.5601 341.707 92.6971 342.894 95.7473 342.474C98.9254 342.054 100.058 340.118 100.478 338.766C100.697 338.054 101.373 337.67 101.976 337.944L123.583 347.004C124.789 347.552 125.738 348.629 126.232 349.981C126.707 351.259 125.885 352.666 124.679 352.684L89.2815 352.903C87.9664 352.903 86.9071 351.661 86.9801 350.145L87.2906 342.766C87.2906 342.638 87.3089 342.529 87.3454 342.401L87.6559 341.36Z" fill="#1F252A"/>
<path d="M38.5961 212.427H33.8838V349.835H38.5961V212.427Z" fill="#2A272D"/>
<path d="M28.3862 184.171L62.14 246.163L83.4918 332.282H102.871L89.0444 236.573L28.3862 184.171Z" fill="#232322"/>
<path d="M56.24 210.4H14.0479C8.00216 210.4 3.08887 205.505 3.08887 199.441C3.08887 193.395 7.98389 188.482 14.0479 188.482H56.24C62.2858 188.482 67.1991 193.395 67.1991 199.441C67.1991 205.505 62.2858 210.4 56.24 210.4Z" fill="#FFEEE3"/>
<path d="M56.4961 210.4H15.9478V214.454H56.4961V210.4Z" fill="#2A272D"/>
<path d="M56.4961 316.483H15.9478V320.538H56.4961V316.483Z" fill="#2A272D"/>
<path d="M34.0483 71.8959C25.9204 70.9096 18.2126 75.8229 15.1075 83.3846C12.4773 89.7591 10.2855 99.0012 12.6234 109.723C19.7468 142.545 15.4911 165.248 15.4911 165.248H54.0851L53.939 120.554C53.939 120.554 56.6057 115.348 58.0486 108.536C60.076 99.0012 59.3088 97.7592 53.738 89.3207L41.884 74.8548C41.9023 74.8548 39.2539 72.5169 34.0483 71.8959Z" fill="#FFD686"/>
<path d="M104.241 103.567C106.816 98.4167 113.063 96.3345 118.214 98.9099C123.364 101.485 125.447 107.732 122.871 112.883C120.296 118.033 114.049 120.116 108.899 117.54C103.748 114.983 101.666 108.718 104.241 103.567Z" fill="#FCC9A7"/>
<path d="M106.524 100.554L86.9072 119.184L94.3593 127.476L109.647 114.38L106.524 100.554Z" fill="#FCC9A7"/>
<path d="M20.8245 100.809L56.3134 154.746C57.6833 156.81 60.4961 157.303 62.487 155.805L105.318 122.161L96.6426 107.275L63.5099 132.591L40.3498 89.759C37.263 83.3298 29.0621 81.3754 23.3999 85.6859C18.6875 89.2659 17.5733 95.8778 20.8245 100.809Z" fill="#FFD686"/>
<path d="M36.2765 80.0604C34.0299 80.0421 31.6372 79.1106 29.8655 78.1973C28.112 77.3024 27.0161 75.4576 27.0344 73.485L27.3997 37.2472L43.2355 37.3203L42.8702 73.1014C42.8519 77.2111 39.893 80.0787 36.2765 80.0604Z" fill="#FCC9A7"/>
<path d="M42.9801 63.0557L36.4412 53.7953C36.4412 53.7953 32.4411 64.3707 42.9435 67.6219L42.9801 63.0557Z" fill="#F2C09E"/>
<path d="M57.2449 37.3932C57.1902 48.1878 48.4047 56.882 37.6101 56.8272C26.8154 56.7724 18.1212 47.987 18.176 37.1923C18.2308 26.3977 27.0163 17.7035 37.8109 17.7583C48.5873 17.8131 57.2815 26.5986 57.2449 37.3932Z" fill="#FCC9A7"/>
<path d="M44.3681 63.1652C39.2539 63.1469 35.1078 58.9642 35.1443 53.85L35.1991 40.48L57.2267 37.3932L57.1719 50.4892C57.1354 57.5213 51.4184 63.2017 44.3681 63.1652Z" fill="#FCC9A7"/>
<path d="M56.6421 41.7585L60.8796 48.0599C61.4823 49.0828 60.6969 50.3431 59.4366 50.3431L54.4868 51.2563L56.6421 41.7585Z" fill="#FCC9A7"/>
<path d="M35.217 45.8318L43.5275 45.5395C43.5275 45.5395 44.2399 38.3248 45.8655 36.5896C47.4911 34.8544 48.313 27.1466 48.313 27.1466C48.313 27.1466 44.386 31.9503 43.2353 36.9184L60.6419 36.48C60.6419 36.48 63.2355 15.3657 36.8791 14.3428C10.5044 13.32 11.235 38.27 16.4223 43.2198C20.5502 47.1651 27.2351 56.8456 27.2351 56.8456C27.2351 56.8456 26.9247 46.124 35.217 45.8318Z" fill="#4C1827"/>
<path d="M41.2445 43.2747C41.3541 46.3615 38.9432 48.9368 35.8746 49.0464C32.7878 49.156 30.2125 46.745 30.0846 43.6765C29.9751 40.5897 32.386 38.0144 35.4545 37.8865C38.5413 37.7769 41.1167 40.1879 41.2445 43.2747Z" fill="#FCC9A7"/>
<path d="M25.1349 11.6396C25.9751 18.562 21.0618 24.8452 14.1576 25.7036C7.23518 26.5438 0.951989 21.6306 0.0935334 14.7081C-0.746658 7.78567 4.16661 1.5025 11.0891 0.66231C18.0115 -0.196146 24.2947 4.71713 25.1349 11.6396Z" fill="#4C1827"/>
<path d="M27.6553 75.9873C27.6553 75.9873 29.1713 80.7179 50.3222 85.1198L40.4956 71.7498L27.6553 75.9873Z" fill="#FCC9A7"/>
<path d="M36.2399 342.894L7.89258 352.593H64.5507L36.2399 342.894Z" fill="#2A272D"/>
<path d="M38.3771 284.793L22.8701 303.442L34.0118 307.679L49.5736 287.935L38.3771 284.793Z" fill="#FCC9A7"/>
<path d="M23.3996 300.903C23.9476 300.263 24.8608 300.3 25.2261 301.012C25.9202 302.4 27.3814 304.337 30.3586 305.177C33.4454 306.053 36.8244 303.35 37.7376 302.273C38.2125 301.706 38.9979 301.615 39.4363 302.126L58.4136 315.442C59.2903 316.428 59.7287 317.798 59.6556 319.241C59.5826 320.592 58.2675 321.56 57.1533 321.086L19.6005 311.588C18.395 311.058 17.9201 309.487 18.5959 308.136L22.5046 302.035C22.5594 301.926 22.6325 301.816 22.7055 301.725L23.3996 300.903Z" fill="#1F252A"/>
<path d="M14.3768 165.248C14.3768 165.248 2.76019 191.696 44.0391 205.779L72.5691 232.281L28.4043 291.423L48.1488 298.565L101.775 241.505C105.738 236.884 105.903 229.797 102.158 224.975L54.1032 165.23H14.3768V165.248Z" fill="#383635"/>
<path d="M239 141.887H97.9756V149.741H239V141.887Z" fill="#FFEEE3"/>
<path d="M132.661 352.629V149.741" stroke="#2A272D" stroke-width="2.2811" stroke-miterlimit="10"/>
<path d="M203.182 352.629V149.741" stroke="#2A272D" stroke-width="2.2811" stroke-miterlimit="10"/>
<path d="M186.525 137.613H127.857V141.413H186.525V137.613Z" fill="#2A272D"/>
<path d="M186.524 141.431L205.52 85.9782L201.538 85.0284L182.926 138.289L186.524 141.431Z" fill="#2A272D"/>
</svg>
